<?xml version="1.0" ?><svg viewBox="0 0 64 64" xmlns="http://www.w3.org/2000/svg"><g id="flat"><polygon points="7 28 7 61 57 61 57 28 32 10 7 28" style="fill:#964c1e"/><polygon points="32 15 51 28 57 28 32 10 7 28 14 28 32 15" style="fill:#854219"/><rect height="2" style="fill:#854219" width="4" x="15" y="32"/><rect height="2" style="fill:#854219" width="2" x="16" y="40"/><rect height="2" style="fill:#854219" width="2" x="19" y="48"/><rect height="2" style="fill:#854219" width="3" x="11" y="56"/><rect height="2" style="fill:#854219" width="2" x="45" y="32"/><rect height="2" style="fill:#854219" width="3" x="50" y="40"/><rect height="2" style="fill:#854219" width="2" x="43" y="40"/><rect height="2" style="fill:#854219" width="2" x="47" y="48"/><rect height="2" style="fill:#854219" width="2" x="45" y="56"/><rect height="3" style="fill:#854219" width="2" x="21" y="23"/><rect height="3" style="fill:#854219" width="2" x="44" y="26"/><rect height="3" style="fill:#854219" width="2" x="28" y="20"/><rect height="2" style="fill:#663318" width="50" x="7" y="36"/><rect height="2" style="fill:#663318" width="50" x="7" y="44"/><rect height="2" style="fill:#663318" width="50" x="7" y="28"/><rect height="2" style="fill:#663318" width="50" x="7" y="52"/><polygon points="48.667 22 15.333 22 12.556 24 51.444 24 48.667 22" style="fill:#663318"/><polygon points="40.333 16 23.667 16 20.889 18 43.111 18 40.333 16" style="fill:#663318"/><circle cx="7" cy="57" r="4" style="fill:#a65c2e"/><circle cx="7" cy="49" r="4" style="fill:#a65c2e"/><circle cx="7" cy="41" r="4" style="fill:#a65c2e"/><circle cx="7" cy="33" r="4" style="fill:#a65c2e"/><circle cx="57" cy="57" r="4" style="fill:#a65c2e"/><circle cx="57" cy="49" r="4" style="fill:#a65c2e"/><circle cx="57" cy="41" r="4" style="fill:#a65c2e"/><circle cx="57" cy="33" r="4" style="fill:#a65c2e"/><polygon points="55 23 44 15 44 7 55 7 55 23" style="fill:#964c1e"/><rect height="4" style="fill:#dd4a43" width="13" x="43" y="3"/><rect height="2" style="fill:#854219" width="5" x="44" y="10"/><rect height="2" style="fill:#854219" width="3" x="52" y="13"/><polygon points="32 3 3 24 3 31 32 10 61 31 61 24 32 3" style="fill:#dd4a43"/><rect height="2" style="fill:#c47747" width="2" x="6" y="32"/><rect height="2" style="fill:#c47747" width="2" x="6" y="40"/><rect height="2" style="fill:#c47747" width="2" x="6" y="48"/><rect height="2" style="fill:#c47747" width="2" x="6" y="56"/><rect height="2" style="fill:#c47747" width="2" x="56" y="32"/><rect height="2" style="fill:#c47747" width="2" x="56" y="40"/><rect height="2" style="fill:#c47747" width="2" x="56" y="48"/><rect height="2" style="fill:#c47747" width="2" x="56" y="56"/><rect height="28" style="fill:#964c1e" width="20" x="22" y="33"/><rect height="28" style="fill:#854219" width="2" x="27" y="33"/><rect height="28" style="fill:#854219" width="2" x="31" y="33"/><rect height="28" style="fill:#854219" width="2" x="35" y="33"/><circle cx="36" cy="45" r="2" style="fill:#c47747"/><rect height="2" style="fill:#854219" width="16" x="24" y="33"/><rect height="31" style="fill:#663318" width="3" x="22" y="30"/><rect height="31" style="fill:#663318" width="3" x="39" y="30"/><rect height="3" style="fill:#663318" width="20" x="22" y="30"/><rect height="3" style="fill:#a65c2e" width="20" x="22" y="30"/><rect height="2" style="fill:#854219" width="11" x="44" y="7"/></g></svg>