<?xml version="1.0" ?><svg data-name="Layer 1" height="24" id="Layer_1" viewBox="0 0 24 24" width="24" xmlns="http://www.w3.org/2000/svg"><title/><path d="M20,14a7.9915,7.9915,0,0,0-4.15761-7.01291A1.626,1.626,0,0,1,15,5.55984V2H9V5.55984a1.626,1.626,0,0,1-.84241,1.42725A7.99149,7.99149,0,0,0,4,14q0,.19965.00969.3968c.1952,3.9949,3.3221,5.2159,7.2744,5.567a7.097,7.097,0,0,0,1.4318,0c3.98711-.3541,7.1343-1.6292,7.2789-5.6729Q20,14.146,20,14Z" style="fill:#ffe6ba"/><path d="M15,4H9A1,1,0,0,1,8,3H8A1,1,0,0,1,9,2h6a1,1,0,0,1,1,1h0A1,1,0,0,1,15,4Z" style="fill:#ffe6ba"/><path d="M17.50809,14.4049l-.5715.391a2.72256,2.72256,0,0,1-2.8572,0l-.5715-.391a2.72238,2.72238,0,0,0-2.8571,0l-.5715.391a2.72272,2.72272,0,0,1-2.85729,0l-.57141-.391a2.71864,2.71864,0,0,0-2.6361-.1005,7.99238,7.99238,0,0,0,7.2696,7.6594,7.097,7.097,0,0,0,1.4318,0,7.99284,7.99284,0,0,0,7.2729-7.73A2.71914,2.71914,0,0,0,17.50809,14.4049Z" style="fill:#fa6d62"/><circle cx="8" cy="14" r="2" style="fill:#fa6d62"/><circle cx="14.5" cy="11.5" r="1.5" style="fill:#fa6d62"/><circle cx="11" cy="8" r="1" style="fill:#fa6d62"/><circle cx="13" cy="18" r="1" style="fill:#ffe6ba"/></svg>