<?xml version="1.0" ?><svg id="art" viewBox="0 0 64 64" xmlns="http://www.w3.org/2000/svg"><defs><style>.cls-1{fill:#699dd1;}.cls-2{fill:#5df9e6;}.cls-3{fill:#8ec6f4;}.cls-4{fill:#041256;}.cls-5{fill:#d0e0ef;}.cls-6{fill:#fff;}.cls-7{fill:#385272;}.cls-8{fill:#577491;}</style></defs><title/><path class="cls-1" d="M43.13,17.63A41.73,41.73,0,0,1,54.49,9.41a.63.63,0,0,0-.26-1.21c-5.38-.26-13.15,3.57-19.91,10.33-5.11,5.11-8.55,10.81-9.82,15.61a7.27,7.27,0,0,1-1.86,3.32l-6.22,6.22L21,48.27,31.09,38.19A6.71,6.71,0,0,0,33,34.65C33.91,29.58,37.51,23.25,43.13,17.63Z"/><path class="cls-2" d="M54.23,8.2a17.27,17.27,0,0,0-7.11,1.47,14.25,14.25,0,0,1,4.11-.48.63.63,0,0,1,.26,1.21,41.73,41.73,0,0,0-11.36,8.22c-5.62,5.62-9.22,12-10.13,17a6.67,6.67,0,0,1-1.91,3.54L20,47.27l1,1L31.09,38.19A6.71,6.71,0,0,0,33,34.65c.91-5.07,4.51-11.4,10.13-17A41.73,41.73,0,0,1,54.49,9.41.63.63,0,0,0,54.23,8.2Z"/><path class="cls-3" d="M18.3,45.43l6.22-6.22a7.27,7.27,0,0,0,1.86-3.32c1.27-4.8,4.71-10.5,9.82-15.61,5.5-5.51,11.68-9.06,16.69-10.06.54-.29,1.07-.56,1.6-.81a.63.63,0,0,0-.26-1.21c-5.38-.26-13.15,3.57-19.91,10.33-5.11,5.11-8.55,10.81-9.82,15.61a7.27,7.27,0,0,1-1.86,3.32l-6.22,6.22L21,48.27l.06-.06Z"/><path class="cls-4" d="M21,49.27A1,1,0,0,1,20.3,49l-4.59-4.59a1,1,0,0,1,0-1.42l6.23-6.22a6.33,6.33,0,0,0,1.6-2.87c1.36-5.16,5-11,10.07-16.06C40.34,11.1,48.44,6.94,54.28,7.2a1.65,1.65,0,0,1,1.55,1.32,1.63,1.63,0,0,1-.91,1.79,40.4,40.4,0,0,0-11.08,8c-5.26,5.26-9,11.43-9.85,16.49A7.75,7.75,0,0,1,31.8,38.9L21.72,49A1,1,0,0,1,21,49.27Zm-3.18-5.59L21,46.86l9.37-9.37a5.74,5.74,0,0,0,1.64-3c1-5.45,4.86-12,10.41-17.56h0A43.91,43.91,0,0,1,52.6,9.24c-5.14.49-11.84,4.26-17.57,10-4.8,4.8-8.29,10.32-9.56,15.15a8.23,8.23,0,0,1-2.12,3.77Z"/><rect class="cls-5" height="2.56" rx="0.88" transform="translate(36.83 -2.83) rotate(45)" width="15.17" x="14.24" y="41.76"/><path class="cls-6" d="M16.82,39.28a.86.86,0,0,1,1.24,0l9.13,9.12.28-.28a.86.86,0,0,0,0-1.24L18,37.39a.88.88,0,0,0-1.24,0l-.57.57a.86.86,0,0,0,0,1.24l.35.36Z"/><path class="cls-2" d="M27,46.88l-9.48-9.49a.83.83,0,0,0-.51-.23L26,46.05a.88.88,0,0,1,0,1.24l-.57.57a.89.89,0,0,1-.74.24l.59.59a.88.88,0,0,0,1.24,0l.57-.57A.86.86,0,0,0,27,46.88Z"/><path class="cls-7" d="M18.71,51.21l4.74-4.74-5.06-5L13.6,46.2a2.53,2.53,0,0,1-1.37.69A4.95,4.95,0,0,0,9,54.5a4.95,4.95,0,0,0,9-1.82A2.75,2.75,0,0,1,18.71,51.21Z"/><rect class="cls-8" height="0.53" transform="translate(37.79 -0.53) rotate(45)" width="5.41" x="16.83" y="45.09"/><rect class="cls-8" height="0.53" transform="translate(38.3 0.71) rotate(45)" width="5.41" x="15.6" y="46.32"/><rect class="cls-8" height="0.53" transform="translate(38.81 1.94) rotate(45)" width="5.41" x="14.36" y="47.55"/><rect class="cls-8" height="0.53" transform="translate(39.32 3.17) rotate(45)" width="5.41" x="13.13" y="48.79"/><path class="cls-2" d="M17.71,52.19a2.75,2.75,0,0,1,.74-1.47L23.19,46l-5.06-5-.33.32,4.27,4.27-4.74,4.74a2.69,2.69,0,0,0-.74,1.47,4.94,4.94,0,0,1-6.22,3.84,5,5,0,0,0,7.34-3.38Z"/><path class="cls-8" d="M9.35,50.53a5,5,0,0,1,3.28-2.16A2.52,2.52,0,0,0,14,47.69l5.33-5.33-.94-.94L13.6,46.2a2.53,2.53,0,0,1-1.37.69,4.95,4.95,0,0,0-3.65,6.9A4.9,4.9,0,0,1,9.35,50.53Z"/><path class="cls-4" d="M26.28,49.94A1.9,1.9,0,0,1,25,49.4h0l-9.48-9.49a1.88,1.88,0,0,1,0-2.66l.57-.57a1.88,1.88,0,0,1,2.65,0l9.49,9.49a1.88,1.88,0,0,1,0,2.66l-.57.57A1.88,1.88,0,0,1,26.28,49.94Zm.09-2ZM17,38.58l9.31,9.32.4-.4-9.31-9.32Z"/><path class="cls-4" d="M13.11,57.72l-.58,0a6,6,0,0,1-.47-11.79,1.62,1.62,0,0,0,.84-.4l4.78-4.79a1,1,0,0,1,1.42,0,1,1,0,0,1,0,1.41l-4.79,4.79a3.46,3.46,0,0,1-1.9,1A4,4,0,0,0,9.79,49.6a3.92,3.92,0,0,0,0,4.34A4,4,0,0,0,17,52.5a3.65,3.65,0,0,1,1-2l4.74-4.74a1,1,0,1,1,1.41,1.41l-4.74,4.74a1.82,1.82,0,0,0-.46.95,6,6,0,0,1-5.84,4.85Z"/><path class="cls-4" d="M13.54,52.49a.82.82,0,1,1,0-1.16A.82.82,0,0,1,13.54,52.49Z"/><polygon class="cls-3" points="21.14 18.99 17.52 18.99 15.71 22.13 17.52 25.26 21.14 25.26 22.95 22.13 21.14 18.99"/><polygon class="cls-3" points="29.05 16.92 28.09 15.95 26.77 16.3 26.41 17.62 27.38 18.59 28.7 18.24 29.05 16.92"/><polygon class="cls-3" points="15.97 29.05 15.97 30.95 17.62 31.91 19.27 30.95 19.27 29.05 17.62 28.09 15.97 29.05"/><polygon class="cls-3" points="42.35 36.2 42.35 38.11 44 39.06 45.65 38.11 45.65 36.2 44 35.25 42.35 36.2"/><polygon class="cls-3" points="43.11 24.49 40.69 26.91 41.58 30.22 44.89 31.11 47.31 28.69 46.42 25.37 43.11 24.49"/><polygon class="cls-3" points="34.13 39.97 34.13 41.88 35.78 42.83 37.43 41.88 37.43 39.97 35.78 39.02 34.13 39.97"/><polygon class="cls-3" points="37.54 32.95 37.54 33.91 38.37 34.39 39.19 33.91 39.19 32.95 38.37 32.48 37.54 32.95"/><polygon class="cls-3" points="21.35 13.55 21.35 14.5 22.18 14.98 23 14.5 23 13.55 22.18 13.07 21.35 13.55"/></svg>