<?xml version="1.0" ?><svg data-name="Layer 1" height="24" id="Layer_1" viewBox="0 0 24 24" width="24" xmlns="http://www.w3.org/2000/svg"><title/><path d="M19.42219,13.9981c0-2.4665-.5397-4.668-2.29519-6.1342a8.02668,8.02668,0,0,0-1.28461-.8768A1.626,1.626,0,0,1,15,5.5598V2H9V5.5598a1.626,1.626,0,0,1-.84241,1.4273,8.02865,8.02865,0,0,0-1.1433.7615c-1.8366,1.4646-2.3525,3.6708-2.3525,6.2028a6.97151,6.97151,0,0,0,6.7343,7.344,7.09806,7.09806,0,0,0,1.43191,0C16.91029,20.9328,19.42219,18.1747,19.42219,13.9981Z" style="fill:#fa6d62"/><path d="M16.98229,7.7646l-.0457.0313a2.72256,2.72256,0,0,1-2.8572,0l-.5715-.391a2.72238,2.72238,0,0,0-2.8571,0l-.5715.391a2.72272,2.72272,0,0,1-2.85729,0l-.13311-.0911a7.98287,7.98287,0,0,0,4.1952,14.259,7.097,7.097,0,0,0,1.4318,0,7.98008,7.98008,0,0,0,4.2664-14.1992Z" style="fill:#4b5661"/><path d="M15,4H9A1,1,0,0,1,8,3H8A1,1,0,0,1,9,2h6a1,1,0,0,1,1,1h0A1,1,0,0,1,15,4Z" style="fill:#fa6d62"/><path d="M7,13.6603v1.645A1.68084,1.68084,0,0,0,8.66669,17h.9231L10,19h4l.41019-2h.9231A1.68085,1.68085,0,0,0,17,15.3053v-1.645A4.62228,4.62228,0,0,0,12.41669,9h-.8334A4.62228,4.62228,0,0,0,7,13.6603Z" style="fill:#fff"/><path d="M8.14009,14.7697h0a1.851,1.851,0,0,1,0-1.4267c.1762-.4418.86591-.6614,1.4993-.7018a1.08647,1.08647,0,0,1,1.2405,1.0771c0,.688-.6453,1.0968-1.3218,1.2034-.7184.1125-1.2076.1364-1.418-.152Z" style="fill:#4b5661"/><path d="M15.86,14.7697h0c-.21041.2884-.70051.2645-1.41841.152-.6765-.1066-1.3218-.5154-1.3218-1.2034a1.08647,1.08647,0,0,1,1.2405-1.0771c.6333.0404,1.3235.26,1.49971.7018A1.85293,1.85293,0,0,1,15.86,14.7697Z" style="fill:#4b5661"/><path d="M11.14559,15.9644h0a4.52719,4.52719,0,0,1,.5201-1.0246.36948.36948,0,0,1,.6315,0,4.51947,4.51947,0,0,1,.5205,1.0246.36955.36955,0,0,1-.3621.4663c-.3617,0-.2752-.4197-.4613-.4164-.1956.0036-.136.4164-.487.4164a.369.369,0,0,1-.3617-.4663Z" style="fill:#4b5661"/></svg>